<!--?xml version="1.0" encoding="UTF-8"?-->
<svg class="SVGInline-svg" xmlns="http://www.w3.org/2000/svg" xmlns:xlink="http://www.w3.org/1999/xlink" viewBox="0 0 32 32" version="1.1" fill="#000000"><g id="surface1" fill="#000000"><path style=" " d="M 9 5 L 9 27 L 11 27 L 11 5 Z M 21 5 L 21 27 L 23 27 L 23 5 Z M 5 11 L 5 21 L 7 21 L 7 11 Z M 17 11 L 17 21 L 19 21 L 19 11 Z M 25 11 L 25 21 L 27 21 L 27 11 Z M 1 14 L 1 18 L 3 18 L 3 14 Z M 13 14 L 13 18 L 15 18 L 15 14 Z M 29 14 L 29 18 L 31 18 L 31 14 Z " fill="#000000"></path></g></svg>
